<svg xmlns="http://www.w3.org/2000/svg" viewBox="0 0 300 75" fill="white">
  <!-- M -->
  <path transform="translate(20, 1) scale(3)" d="M15 1V2H17V3H18V4H19V5H20V7H21V15H20V17H19V18H18V19H17V20H15V21H7V20H5V19H4V18H3V17H2V15H1V7H2V5H3V4H4V3H5V2H7V1H15M7 6L7 7L6 7V16H8V8H10V15H12V8H14V16H16V7L15 7L15 6H7Z"/>
  
  <!-- i -->
  <path transform="translate(85, 20) scale(1.5)" d="M5.125 6.594h-2.563v-2.563h2.563v2.563zM4.969 25.594h-2.25v-16.438h2.25v16.438z"/>
  
  <!-- n -->
  <path transform="translate(95, 20) scale(1.5)" d="M3.219 9.156v2c1.313-1.25 3.406-2 5.344-2s3.406 0.75 4.719 2c1.375 1.313 2.25 3.188 2.25 5.25v9.188h-2.25v-9.313c-0.063-2.719-2-4.906-4.719-4.906-2.75 0-5.281 2.188-5.344 4.906v9.313h-2.25v-16.438h2.25z"/>
  
  <!-- i -->
  <path transform="translate(118, 20) scale(1.5)" d="M5.125 6.594h-2.563v-2.563h2.563v2.563zM4.969 25.594h-2.25v-16.438h2.25v16.438z"/>
  
  <!-- m -->
  <path transform="translate(127, 20) scale(1.5)" d="M3.188 9.156v2c1.313-1.25 3.406-2 5.344-2s3.438 0.75 4.75 2c0.406 0.406 0.813 0.875 1.125 1.375 1.281-2.063 3.875-3.375 6.469-3.375 1.938 0 3.375 0.75 4.688 2 1.406 1.313 2.281 3.188 2.281 5.25v9.188h-2.281v-9.313c-0.063-2.719-1.938-4.906-4.688-4.906s-5.313 2.219-5.344 4.969v9.25h-2.25v-9.313c-0.094-2.719-2-4.906-4.75-4.906-2.719 0-5.281 2.188-5.344 4.906v9.313h-2.219v-16.438h2.219z"/>
  
  <!-- a -->
  <path transform="translate(170, 20) scale(1.5)" d="M15.969 12.094v-2.938h2.25v16.438h-2.25v-2.313c-1.563 1.719-3.875 2.844-6.438 2.844-4.75 0-8.906-3.75-8.906-8.438s4.156-8.438 8.906-8.438c2.563 0 4.875 1.125 6.438 2.844zM15.969 17.875v-0.375c-0.125-3.438-2.969-6.188-6.469-6.188-3.594 0-6.719 2.844-6.719 6.375s3.125 6.375 6.719 6.375c3.5 0 6.344-2.75 6.469-6.188z"/>
  
  <!-- l -->
  <path transform="translate(180, 17) scale(1.5)" d="M15.553 3.993h0.928c0.442 0 0.8 0.358 0.8 0.8v0 22.4c0 0.442-0.359 0.801-0.801 0.801v0h-0.927c-0.442 0-0.8-0.358-0.8-0.8v0-22.401c0-0.442 0.358-0.8 0.8-0.8v0z"/>
</svg>
